<svg width="32" height="32" viewBox="0 0 32 32" fill="none" xmlns="http://www.w3.org/2000/svg">
  <rect width="32" height="32" rx="6" fill="#4f46e5"/>
  <path d="M16 8a6 6 0 0 1 4.5 10 4 4 0 0 1 1.5 3v2a1 1 0 0 1-1 1h-10a1 1 0 0 1-1-1v-2a4 4 0 0 1 1.5-3A6 6 0 0 1 16 8Z" stroke="white" stroke-width="1.8" stroke-linecap="round" stroke-linejoin="round" fill="none"/>
  <path d="M14 22v2h4v-2" stroke="white" stroke-width="1.8" stroke-linecap="round"/>
  <path d="M12 26h8" stroke="white" stroke-width="1.8" stroke-linecap="round"/>
</svg>
